<svg xmlns="http://www.w3.org/2000/svg" width="63.325" height="61.213" viewBox="0 0 63.325 61.213">
  <g id="noun_Diet_control_609324" data-name="noun_Diet control_609324" transform="translate(120.413 -10.268)">
    <path id="Path_3070" data-name="Path 3070" d="M51.287,34.531l.063.713a1.069,1.069,0,0,1-.97,1.16q-.048,0-.1,0a1.069,1.069,0,0,1-1.063-.974l-.063-.713a1.069,1.069,0,0,1,2.13-.19Zm-1.748-6.495q.048,0,.1,0a1.069,1.069,0,0,0,.97-1.16l-.487-5.482a1.069,1.069,0,1,0-2.13.19l.487,5.482A1.069,1.069,0,0,0,49.539,28.036Zm-36.9-2.76c-.108-2.282,1.852-3.648,4.236-3.285.584.089.051-.719-.929-1.075a3.667,3.667,0,0,0-3.681.656,4.777,4.777,0,0,0-1.765,3.7,1.069,1.069,0,0,0,1.069,1.069A1.053,1.053,0,0,0,12.641,25.276Zm37.048,3.362a1.069,1.069,0,0,0-.97,1.16l.188,2.112a1.069,1.069,0,0,0,1.063.974q.048,0,.1,0a1.069,1.069,0,0,0,.97-1.16l-.188-2.112A1.072,1.072,0,0,0,49.689,28.638ZM64.143,46.324V58.966a1.426,1.426,0,0,1-1.425,1.425H22.448V64.63c0,2.231-2.667,3.851-6.342,3.851S9.764,66.862,9.764,64.63V48.749c0-2.192,2.574-3.792,6.147-3.849H62.718A1.424,1.424,0,0,1,64.143,46.324Zm-51.5,2.425c.239.33,1.445,1,3.467,1a4.935,4.935,0,0,0,3.467-1,4.94,4.94,0,0,0-3.467-1A4.94,4.94,0,0,0,12.639,48.749ZM19.6,52.02a9.955,9.955,0,0,1-3.491.579,9.968,9.968,0,0,1-3.491-.579V64.593c.167.312,1.387,1.039,3.491,1.039s3.325-.727,3.491-1.039Zm41.7-4.271H56.077v2.789a1.069,1.069,0,0,1-2.138,0V47.749H49.787V52.07a1.069,1.069,0,0,1-2.138,0V47.749H43.083v2.789a1.069,1.069,0,0,1-2.138,0V47.749H36.793V52.07a1.069,1.069,0,0,1-2.138,0V47.749H30.089v2.789a1.069,1.069,0,0,1-2.138,0V47.749H22.257a2.7,2.7,0,0,1,.19,1v8.793H61.292ZM8.917,36.981c-4.372-6.192-4.451-15.657-.162-19.475a8.991,8.991,0,0,1,7.468-2.147,24.928,24.928,0,0,1,2.867.635c-.262-2.325-2.637-4.7-6.226-5.9-.747-.249,1.236-.47,2.929.124A10.239,10.239,0,0,1,20.868,13.7a7.56,7.56,0,0,1,1.879-3.651c1.83-1.909,8.788-3.011,9.111-2.733s.357,4.829-2.463,8.174a9.09,9.09,0,0,1,5.113,1.968c4.03,3.184,5,13.278.511,19.638a9.8,9.8,0,0,1-7.412,4.365,8.4,8.4,0,0,1-4.623-.463,2.82,2.82,0,0,0-1.3-.282,7.636,7.636,0,0,0-1.926.408,10.67,10.67,0,0,1-3.1.572,6.556,6.556,0,0,1-2.427-.466A10.571,10.571,0,0,1,8.917,36.981ZM23.376,16.607a11.019,11.019,0,0,0,5.734-6.362c-1.8.46-3.681,1.121-4.3,1.77C23.728,13.141,23.453,14.781,23.376,16.607ZM11.245,35.337a7.755,7.755,0,0,0,4.03,3.234,5.218,5.218,0,0,0,3.673-.185,9.812,9.812,0,0,1,2.693-.525,5.6,5.6,0,0,1,2.373.474,5.641,5.641,0,0,0,3.259.29,6.982,6.982,0,0,0,5.417-3.178c3.693-5.229,2.725-13.645.051-15.757a6.155,6.155,0,0,0-3.948-1.358A19.539,19.539,0,0,0,23.81,19.56q-.672.3-1.418.565a1.43,1.43,0,0,1-1.076-.049,1.472,1.472,0,0,1-.339-.179,13.363,13.363,0,0,0-5.216-1.724,6.387,6.387,0,0,0-1.031-.084,6.117,6.117,0,0,0-4.081,1.547C7.459,22.476,7.759,30.4,11.245,35.337ZM68.86,14.262l-.015.173-1.946,23a4.947,4.947,0,0,1-4.782,4.5h-12.9a4.949,4.949,0,0,1-4.782-4.508L42.471,14.288a3.907,3.907,0,0,1,.76-3.237,5.391,5.391,0,0,1,3.7-1.446H64.4a5.313,5.313,0,0,1,3.7,1.43A3.893,3.893,0,0,1,68.86,14.262Zm-3.3,5.218H45.772l1.5,17.707a2.1,2.1,0,0,0,1.941,1.9h12.9a2.1,2.1,0,0,0,1.941-1.893ZM66,12.963a2.726,2.726,0,0,0-1.6-.508H46.928a2.714,2.714,0,0,0-1.6.523,2.548,2.548,0,0,0-.02,1.056l.22,2.6H65.8L66,14.194l.016-.185A2.528,2.528,0,0,0,66,12.963Z" transform="translate(-126 3)" fill="#8fba1c"/>
  </g>
</svg>
