<svg xmlns="http://www.w3.org/2000/svg" width="55.776" height="55.776" viewBox="0 0 55.776 55.776">
  <g id="slim" transform="translate(0.25 0.25)">
    <path id="Path_3003" data-name="Path 3003" d="M62.258,19.807C55.652,31.139,65.482,53.768,65.9,54.724a.921.921,0,0,0,.844.553h28.8a.921.921,0,0,0,.844-.553c.421-.955,10.246-23.585,3.641-34.916C93.858,9.232,95.507,1.2,95.523,1.122A.921.921,0,0,0,94.624,0H67.664a.921.921,0,0,0-.9,1.118c.017.079,1.666,8.114-4.506,18.689Zm5.1,33.627c-1.094-2.646-5.66-14.3-5.522-24.015,3.824-.239,10.189-.1,13.312,1.774.877.523,1.664.972,2.385,1.368.01.027.008.055.021.082a48.014,48.014,0,0,1,2.688,7.815.7.7,0,0,0-.016.077v12.9Zm13.79-16.481c-.434-1.366-.848-2.495-1.18-3.338a5.366,5.366,0,0,0,2.359,0C81.991,34.456,81.577,35.588,81.144,36.953Zm13.79,16.481H82.065v-12.9a.7.7,0,0,0-.016-.077,48.013,48.013,0,0,1,2.688-7.815c.013-.027.011-.054.021-.081q1.034-.564,2.386-1.37c3.487-2.092,10.595-1.927,13.31-1.776.139,9.715-4.426,21.371-5.52,24.018Zm5.426-25.869c-3.27-.175-10.347-.242-14.162,2.045q-1.666,1-2.856,1.619l-.066.036-.215.11c-.087.045-.17.092-.272.137a3.685,3.685,0,0,1-3.3,0l-.154-.076c-.154-.076-.322-.159-.5-.253-.8-.43-1.726-.959-2.753-1.571-3.911-2.344-11.322-2.2-14.161-2.042a16.182,16.182,0,0,1,1.927-6.842c.081-.137.148-.269.225-.405a15.009,15.009,0,0,1,3.651,1.113c.361.146.719.291,1.074.426.634.241,1.268.5,1.9.754,1.359.553,2.764,1.118,4.193,1.541a22.841,22.841,0,0,0,6.236.717h.017a22.836,22.836,0,0,0,6.235-.714c1.43-.422,2.834-.99,4.194-1.54.636-.257,1.27-.513,1.9-.754q.532-.2,1.075-.426a14.99,14.99,0,0,1,3.649-1.113c.078.136.145.268.225.405a16.192,16.192,0,0,1,1.926,6.833ZM68.731,1.843H93.557c-.261,2.466-.349,8.752,3.719,16.753a19.594,19.594,0,0,0-3.408,1.136c-.349.141-.7.277-1.037.411-.645.245-1.29.507-1.942.769-1.318.533-2.681,1.084-4.025,1.481a21.216,21.216,0,0,1-5.719.638,21.218,21.218,0,0,1-5.722-.638c-1.343-.4-2.706-.948-4.024-1.481-.645-.262-1.3-.524-1.942-.769-.342-.13-.688-.27-1.037-.411A19.672,19.672,0,0,0,65.01,18.6c4.07-8,3.983-14.286,3.721-16.753Zm0,0" transform="translate(-53.506)" fill="#8fba1c" stroke="#8fba1c" stroke-width="0.5"/>
    <path id="Path_3004" data-name="Path 3004" d="M233.162,131.685a2.764,2.764,0,0,0,2.764-2.764.921.921,0,1,0-1.843,0,.921.921,0,0,1-1.843,0,.921.921,0,1,0-1.843,0,2.764,2.764,0,0,0,2.764,2.764Zm0,0" transform="translate(-205.524 -114.181)" fill="#8fba1c" stroke="#8fba1c" stroke-width="0.5"/>
    <path id="Path_3005" data-name="Path 3005" d="M.921,25.362H4.607V27.2a.921.921,0,0,0,1.511.708l5.528-4.607a.921.921,0,0,0,0-1.415L6.117,17.284a.921.921,0,0,0-1.511.708v1.843H.921A.921.921,0,0,0,0,20.755V24.44a.921.921,0,0,0,.921.921Zm.921-3.685H5.528a.921.921,0,0,0,.921-.921v-.8L9.616,22.6l-3.167,2.64v-.8a.921.921,0,0,0-.921-.921H1.843Zm0,0" transform="translate(0 -15.227)" fill="#8fba1c" stroke="#8fba1c" stroke-width="0.5"/>
    <path id="Path_3006" data-name="Path 3006" d="M412.118,19.826h-3.685V17.984a.921.921,0,0,0-1.511-.708l-5.528,4.607a.921.921,0,0,0,0,1.415l5.528,4.607a.921.921,0,0,0,1.511-.708V25.354h3.685a.921.921,0,0,0,.921-.921V20.747a.921.921,0,0,0-.921-.921Zm-.921,3.685h-3.685a.921.921,0,0,0-.921.921v.8l-3.166-2.64,3.166-2.639v.8a.921.921,0,0,0,.921.921H411.2Zm0,0" transform="translate(-357.763 -15.219)" fill="#8fba1c" stroke="#8fba1c" stroke-width="0.5"/>
  </g>
</svg>
