<svg id="metabolism" xmlns="http://www.w3.org/2000/svg" width="59.766" height="59.766" viewBox="0 0 59.766 59.766">
  <path id="Path_3000" data-name="Path 3000" d="M270.306,45.919a1.751,1.751,0,0,0-.684-2.9l-11.143-3.714a1.751,1.751,0,0,0-2.215,2.215l3.714,11.143a1.752,1.752,0,0,0,2.9.684l2.382-2.382a25.924,25.924,0,0,1,3.874,13.555A26.411,26.411,0,0,1,242.751,90.9a1.751,1.751,0,1,0,0,3.5,29.948,29.948,0,0,0,29.883-29.883A29.48,29.48,0,0,0,267.8,48.428Zm-7.9,2.949-1.711-5.133,5.133,1.711Z" transform="translate(-212.868 -34.638)" fill="#8fba1c"/>
  <path id="Path_3001" data-name="Path 3001" d="M1.8,48.13a1.751,1.751,0,0,0,.684,2.9l11.143,3.714a1.751,1.751,0,0,0,2.215-2.215L12.123,41.385a1.751,1.751,0,0,0-2.9-.684L7.047,42.878A25.947,25.947,0,0,1,3.5,29.883,26.411,26.411,0,0,1,29.883,3.5a1.751,1.751,0,1,0,0-3.5A29.948,29.948,0,0,0,0,29.883,29.523,29.523,0,0,0,4.494,45.431ZM9.7,45.18l1.711,5.133L6.275,48.6Z" fill="#8fba1c"/>
  <path id="Path_3002" data-name="Path 3002" d="M140.261,61a8.767,8.767,0,0,0-8.712,7.889,15.692,15.692,0,0,0-1.586.653,5.25,5.25,0,0,0-7.425,7.425,15.8,15.8,0,0,0-.89,11.277,5.251,5.251,0,0,0,4.606,7.776,5.292,5.292,0,0,0,.564-.031,15.774,15.774,0,0,0,15.242,2.618,7,7,0,0,0,9.543-9.543A15.753,15.753,0,0,0,148.351,73.1,8.756,8.756,0,0,0,140.261,61Zm0,3.5a5.239,5.239,0,0,1,5.179,6.116A15.666,15.666,0,0,0,136.759,68c-.494,0-.985.025-1.474.07A5.261,5.261,0,0,1,140.261,64.5Zm-14.008,7a1.751,1.751,0,1,1-1.751,1.751A1.753,1.753,0,0,1,126.253,71.506ZM124.5,90.766a1.751,1.751,0,1,1,1.751,1.751A1.753,1.753,0,0,1,124.5,90.766Zm21.012,5.253a3.5,3.5,0,1,1,3.5-3.5A3.506,3.506,0,0,1,145.513,96.019Zm3.237-9.71a7,7,0,0,0-9.445,9.445,12.3,12.3,0,0,1-9.045-1.6,5.251,5.251,0,0,0-5.6-8.4,12.283,12.283,0,0,1,1.03-7.279,5.252,5.252,0,0,0,5.78-5.78,12.267,12.267,0,0,1,17.275,13.61Z" transform="translate(-106.876 -53.879)" fill="#8fba1c"/>
</svg>
