<svg xmlns="http://www.w3.org/2000/svg" width="55.996" height="55.996" viewBox="0 0 55.996 55.996">
  <g id="_09-green_energy" data-name="09-green energy" transform="translate(-1.738 -1.738)">
    <path id="Path_2998" data-name="Path 2998" d="M54.106,30.9a37.589,37.589,0,0,0,2.761-7.379c1.866-7.374.7-13.632-3.293-17.622S43.327.739,35.952,2.6a37.6,37.6,0,0,0-7.379,2.761,37.541,37.541,0,0,0-5.64-2.128C15.714,1.187,9.664,2.132,5.9,5.9s-4.711,9.816-2.66,17.036a37.547,37.547,0,0,0,2.128,5.64A37.6,37.6,0,0,0,2.6,35.953C.739,43.327,1.908,49.585,5.9,53.574A15.226,15.226,0,0,0,17,57.734a26.662,26.662,0,0,0,6.517-.866A37.6,37.6,0,0,0,30.9,54.106a37.541,37.541,0,0,0,5.64,2.128,25.85,25.85,0,0,0,7.023,1.06,13.709,13.709,0,0,0,10.013-3.72c3.766-3.766,4.711-9.816,2.66-17.036A37.545,37.545,0,0,0,54.106,30.9ZM36.6,5.167a24,24,0,0,1,5.86-.785,12.671,12.671,0,0,1,9.245,3.385c3.3,3.3,4.228,8.669,2.6,15.1a33.659,33.659,0,0,1-1.732,5.051,55.542,55.542,0,0,0-9.13-11.894A55.543,55.543,0,0,0,31.55,6.9,33.657,33.657,0,0,1,36.6,5.167Zm14.553,25.7a49.473,49.473,0,0,1-8.7,11.589,49.474,49.474,0,0,1-11.589,8.7A51.707,51.707,0,0,1,17.9,41.575a51.692,51.692,0,0,1-9.578-12.97A51.353,51.353,0,0,1,28.6,8.319,51.708,51.708,0,0,1,41.575,17.9a51.7,51.7,0,0,1,9.579,12.97ZM5.78,22.212C4,15.955,4.708,10.825,7.766,7.767A11.153,11.153,0,0,1,15.916,4.82a23.222,23.222,0,0,1,6.3.96,33.421,33.421,0,0,1,3.417,1.182A54.493,54.493,0,0,0,6.961,25.629,33.433,33.433,0,0,1,5.78,22.212ZM22.871,54.306a23.99,23.99,0,0,1-5.86.785,12.671,12.671,0,0,1-9.245-3.385c-3.3-3.3-4.228-8.669-2.6-15.1A33.658,33.658,0,0,1,6.9,31.55a55.542,55.542,0,0,0,9.13,11.894,55.54,55.54,0,0,0,11.894,9.13,33.658,33.658,0,0,1-5.051,1.732Zm28.834-2.6c-3.058,3.058-8.188,3.764-14.445,1.987a33.429,33.429,0,0,1-3.417-1.182,53.05,53.05,0,0,0,10.482-8.186,53.042,53.042,0,0,0,8.186-10.481,33.434,33.434,0,0,1,1.182,3.417C55.469,43.518,54.763,48.648,51.705,51.706Z" transform="translate(0 0)" fill="#8fba1c"/>
    <path id="Path_2999" data-name="Path 2999" d="M154.3,152.551a1.345,1.345,0,0,0-1.789.276,1.293,1.293,0,0,0,.121,1.754.792.792,0,0,1,.2.526c-.034.275-.349.63-.865.974-2.584,1.722-4.2,2.924-4.925,5.086a6.421,6.421,0,0,0,1.161,5.971,22.99,22.99,0,0,0-1.854,2.625,20.67,20.67,0,0,0-2.946-6.374,6.536,6.536,0,0,0,1.742-6.627c-.721-2.162-2.341-3.364-4.925-5.086-.515-.344-.831-.7-.865-.974a.792.792,0,0,1,.2-.526,1.293,1.293,0,0,0,.121-1.754,1.345,1.345,0,0,0-1.789-.276c-.241.157-5.885,3.911-5.885,9.916a7.135,7.135,0,0,0,3.355,6.133,6.767,6.767,0,0,0,3.561,1.026,6.521,6.521,0,0,0,2.262-.406,17.119,17.119,0,0,1,3.156,9.983,1.319,1.319,0,0,0,.076.439,11.8,11.8,0,0,0-.076,1.323,1.321,1.321,0,1,0,2.643,0c0-3.049,1.47-5.525,3.23-7.7.048.026.1.052.144.076a6.526,6.526,0,0,0,2.925.692,6.768,6.768,0,0,0,3.561-1.026,7.134,7.134,0,0,0,3.355-6.133C160.189,156.461,154.545,152.707,154.3,152.551Zm-17.561,9.4a4.451,4.451,0,0,1-2.1-3.885,8.828,8.828,0,0,1,2.524-5.774,5.033,5.033,0,0,0,1.588,1.588c2.55,1.7,3.469,2.476,3.884,3.723a3.818,3.818,0,0,1-.819,3.6l-.343-.448c-1.358-1.772-2.43-3.172-2.43-4.451a1.321,1.321,0,0,0-2.643,0c0,2.176,1.379,3.975,2.975,6.059l.13.17A4.08,4.08,0,0,1,136.744,161.946Zm18.7,4.4a4.03,4.03,0,0,1-3.43.421l.325-.358c1.848-2.033,3.444-3.789,3.444-5.709a1.321,1.321,0,0,0-2.643,0c0,.9-1.4,2.44-2.757,3.931l-.4.436a3.654,3.654,0,0,1-.439-3.069c.416-1.247,1.334-2.023,3.884-3.723a5.028,5.028,0,0,0,1.588-1.588,8.829,8.829,0,0,1,2.524,5.774A4.451,4.451,0,0,1,155.445,166.351Z" transform="translate(-115.918 -130.087)" fill="#8fba1c"/>
  </g>
</svg>
