<svg xmlns="http://www.w3.org/2000/svg" width="61.242" height="61.213" viewBox="0 0 61.242 61.213">
  <g id="flexibility" transform="translate(0 -0.123)">
    <path id="Path_3067" data-name="Path 3067" d="M199.14,9.206a8.964,8.964,0,1,0-17.927,0,8.964,8.964,0,0,0,17.927,0Zm-8.964,5.378A5.384,5.384,0,0,1,184.8,9.206a5.379,5.379,0,1,1,10.756,0A5.384,5.384,0,0,1,190.177,14.584Z" transform="translate(-159.555)" fill="#8fba1c"/>
    <path id="Path_3068" data-name="Path 3068" d="M176.311,163.672a12.549,12.549,0,0,0-25.1,0v1.793h25.1Zm-21.333-1.793a8.965,8.965,0,0,1,17.567,0Z" transform="translate(-133.141 -132.953)" fill="#8fba1c"/>
    <path id="Path_3069" data-name="Path 3069" d="M11.5,266.787H25.243v3.824H18.779L30.621,281.27l11.843-10.658H36v-3.824H49.743v6.121l11.5-11.5-11.5-11.5v6.121H11.5V249.91L0,261.409l11.5,11.5Zm-3.585-2.535L5.07,261.409l2.843-2.843v1.05H53.329v-1.05l2.843,2.843-2.843,2.843V263.2H32.414v11h.706l-2.5,2.249-2.5-2.249h.706v-11H7.913Z" transform="translate(0 -219.934)" fill="#8fba1c"/>
  </g>
</svg>
