<svg xmlns="http://www.w3.org/2000/svg" width="50.664" height="61.777" viewBox="0 0 50.664 61.777">
  <g id="noun_Natural_Ingredient_1872801" data-name="noun_Natural Ingredient_1872801" transform="translate(-7.133 -0.186)">
    <g id="Group_22" data-name="Group 22" transform="translate(7.368 0.5)">
      <g id="Group_19" data-name="Group 19" transform="translate(27.936 15.058)">
        <path id="Path_2995" data-name="Path 2995" d="M56.07,18.695c-3.133-1.273-6.168,2.839-5.973,7.441L50,37.984h-.392c-5.287-1.273-11.456,9.6-13.218,12.924a4.392,4.392,0,0,0-.49,1.86V63.636a.979.979,0,1,0,1.958,0V52.67c0-1.86,7.539-13.806,11.26-12.826h.2c.2,0,.587.1.587.2,0,0,.2.685-1.371,3.329-.587.979-3.525,5.875-3.525,7.833a.979.979,0,0,0,1.958,0c0-1.077,1.86-4.6,3.231-6.854,2.448-4.112,1.371-2.35,1.86-18.309-.294-5.385,3.525-6.854,3.916-4.8a16.384,16.384,0,0,1,.2,3.329c-.294,29.374,2.056,13.218-7.637,35.738a.589.589,0,0,0-.1.392v2.742a.979.979,0,0,0,1.958,0V60.895c6.364-13.61,7.735-14.491,7.735-17.82V24.668C58.224,22.22,58.224,19.576,56.07,18.695Z" transform="translate(-35.9 -18.461)" fill="#8fba1c" stroke="#8fba1c" stroke-width="0.5"/>
      </g>
      <g id="Group_20" data-name="Group 20" transform="translate(0 14.96)">
        <path id="Path_2996" data-name="Path 2996" d="M15.918,37.982h-.392l-.1-11.847c.2-4.7-2.839-8.812-5.973-7.539C7.3,19.476,7.3,22.12,7.4,24.568c.294,18.212-.587,19.289.881,22.324l6.854,14.1c.2,1.273-.587,3.525.979,3.525a.925.925,0,0,0,.979-.979c0-2.742.1-2.839-.1-3.133-6.658-14.3-7.637-14.589-7.637-17.232,0-20.659-.1-20.366.2-21.834.392-2.252,4.112-.49,3.916,4.8l.2,13.512c-.49,2.742,4.9,8.91,4.9,11.554a.925.925,0,0,0,.979.979c3.623,0-4.112-10.477-3.916-12.141h0c.1-.1.392-.1.587-.2h.2c3.721-.881,11.26,11.162,11.26,12.826V63.536a.979.979,0,1,0,1.958,0c-.1-10.77.392-11.162-.49-12.729C27.373,47.479,21.2,36.709,15.918,37.982Z" transform="translate(-7.368 -18.361)" fill="#8fba1c" stroke="#8fba1c" stroke-width="0.5"/>
      </g>
      <g id="Group_21" data-name="Group 21" transform="translate(11.943)">
        <path id="Path_2997" data-name="Path 2997" d="M45.546,26.349C48.189,15.187,33.992,1.381,33.4.794a.946.946,0,0,0-1.371,0c-.587.587-14.785,14.393-12.141,25.555,1.175,4.8,5.091,8.225,11.847,10.477.294,4.21-.685,6.756.979,6.756s.685-2.546.979-6.756C40.357,34.671,44.371,31.146,45.546,26.349ZM32.719,2.85c2.742,2.839,13.022,14.2,10.868,23.009-.979,3.916-4.308,6.854-9.889,8.812V30.853c2.154-2.154,4.5-3.133,3.427-4.308-.979-1.175-2.252.881-3.427,1.762V23.8c2.154-2.154,4.5-3.133,3.427-4.308-.979-1.175-2.252.881-3.427,1.762V13.718a.979.979,0,0,0-1.958,0v7.539L29.684,19.4a.972.972,0,0,0-1.273,1.469L31.74,23.8v4.5c-1.273-.881-2.448-2.839-3.427-1.762-1.077,1.273,1.371,2.154,3.427,4.308v3.819C15.193,28.992,21.166,14.893,32.719,2.85Z" transform="translate(-19.565 -0.5)" fill="#8fba1c" stroke="#8fba1c" stroke-width="0.5"/>
      </g>
    </g>
  </g>
</svg>
