<svg xmlns="http://www.w3.org/2000/svg" width="59.176" height="61.213" viewBox="0 0 59.176 61.213">
  <g id="noun_Muscle_730325" transform="translate(-12.178 -10.877)">
    <g id="Group_811" data-name="Group 811" transform="translate(12.178 10.877)">
      <path id="Path_3061" data-name="Path 3061" d="M68.734,51.382C66.865,46.7,60.344,31,54.92,25.557c-.746-.749-1.4-1.418-1.987-2.015-4.365-4.448-4.721-4.812-10.874-6.944a44.678,44.678,0,0,0-5.394-1.671,20.708,20.708,0,0,0-3.176,5.338A4.514,4.514,0,0,0,33.55,22.8c.311.656.6.8,1.467,1.21l.207.1a2.243,2.243,0,0,1,.226.131,2.913,2.913,0,0,0,.908-.272,4.757,4.757,0,0,0,1.116-.649,2.422,2.422,0,0,1,2.5-.447c.221.074.437.151.659.231a7.122,7.122,0,0,0,2.014.528h.006a1.072,1.072,0,0,0,.516-.146,3.658,3.658,0,0,1,1.85-.372c1.539.1,5.98,2.8,6.616,5.879.449,2.255.461,12.686.458,14.7.477,1.689,1.06,3.635,1.237,4.055l.626,1.073L53,49.709a1.792,1.792,0,0,1-2.429-.268c-.72-.571-2.632-2.09-4.069-2.233-2.416-.228-4.2-.257-6.726,1.392-.508.361-2.857,2.884-4.74,5.012l-2.4-2.006,2.208-2.8a10.843,10.843,0,0,0-10.834-2.1,11.146,11.146,0,0,0-5.44,4.249l-1.293-.88,1.292.882a14.047,14.047,0,0,0-2.331,8.7,17.135,17.135,0,0,0,1.727,5.731l-1.379.738,1.38-.738a7.373,7.373,0,0,0,6.584,4.331c6.774.251,8.3.056,8.874-.017l.214-.025c1.076-.128,2.951-.182,5.122-.243a57.325,57.325,0,0,0,7.734-.5c.142-.035,13.595-3.715,22.281-14.622a3.227,3.227,0,0,0,.089-2.617ZM41.824,68.124a13.13,13.13,0,0,1-6.2-1.449L37.1,63.913c5.561,2.96,13.8-.6,16.234-4.5l2.654,1.658C53.476,65.09,47.51,68.124,41.824,68.124Z" transform="translate(-13.05 -11.758)" fill="none"/>
      <path id="Path_3062" data-name="Path 3062" d="M70.874,49.6l-.1-.261c-2.467-6.179-8.82-21.164-14.5-26.873-.739-.744-1.389-1.406-1.971-2-4.539-4.626-5.236-5.336-12.085-7.71A37.006,37.006,0,0,0,35.9,10.893c-3.2-.427-6.254,7.5-6.276,7.57a7.541,7.541,0,0,0,.232,4.806,5.33,5.33,0,0,0,2.933,2.676L32.9,26c1,.666,2.219.652,3.828-.043a7.9,7.9,0,0,0,1.622-.92l.359.128a9.245,9.245,0,0,0,3.067.713,3.95,3.95,0,0,0,1.788-.41.892.892,0,0,1,.337-.116c.881.23,3.537,2.1,3.8,3.38.308,1.546.406,9.39.4,14.286v.217l.059.21c.046.163.09.32.134.473a7.335,7.335,0,0,0-2.361-.7A12.017,12.017,0,0,0,37.2,45.1a7.231,7.231,0,0,0-.868.736,14.005,14.005,0,0,0-14.279-2.943,14.223,14.223,0,0,0-6.94,5.423h0a17.243,17.243,0,0,0-2.851,10.854,20.342,20.342,0,0,0,2.072,6.818h0a10.535,10.535,0,0,0,9.228,5.981c2.5.092,4.319.124,5.658.124a26.949,26.949,0,0,0,3.727-.166l.163-.019c.96-.114,2.857-.168,4.865-.225a54.03,54.03,0,0,0,8.4-.594c3.693-.9,16.025-5.724,23.974-15.706C71.94,53.387,71.265,50.527,70.874,49.6ZM67.9,53.427c-8.687,10.907-22.14,14.587-22.281,14.622a57.59,57.59,0,0,1-7.734.5c-2.171.061-4.046.114-5.122.243l-.214.025c-.574.074-2.1.269-8.874.017a7.373,7.373,0,0,1-6.584-4.331l-1.38.738,1.379-.738a17.172,17.172,0,0,1-1.727-5.731,14.053,14.053,0,0,1,2.331-8.7L16.4,49.194l1.293.88a11.155,11.155,0,0,1,5.44-4.249,10.848,10.848,0,0,1,10.834,2.1l-2.208,2.8,2.4,2.006c1.882-2.129,4.232-4.651,4.74-5.012,2.53-1.65,4.31-1.621,6.726-1.392,1.437.144,3.349,1.662,4.069,2.233a1.792,1.792,0,0,0,2.429.268l.965-.894-.626-1.073c-.177-.419-.76-2.365-1.237-4.055,0-2.011-.009-12.442-.458-14.7-.636-3.081-5.077-5.783-6.616-5.879a3.658,3.658,0,0,0-1.85.372,1.072,1.072,0,0,1-.516.146h-.006a7.128,7.128,0,0,1-2.014-.528c-.222-.08-.439-.157-.659-.231a2.422,2.422,0,0,0-2.5.447,4.757,4.757,0,0,1-1.116.649,2.913,2.913,0,0,1-.908.272,2.1,2.1,0,0,0-.226-.131l-.207-.1c-.864-.415-1.155-.555-1.467-1.21a4.514,4.514,0,0,1-.062-2.532,20.686,20.686,0,0,1,3.176-5.338,44.53,44.53,0,0,1,5.394,1.671c6.153,2.133,6.509,2.5,10.874,6.944.587.6,1.242,1.265,1.987,2.015C59.471,30.124,65.992,45.82,67.861,50.5l.124.31A3.212,3.212,0,0,1,67.9,53.427Z" transform="translate(-12.178 -10.877)" fill="#8fba1c"/>
      <path id="Path_3063" data-name="Path 3063" d="M42.508,76.294l-1.471,2.762a13.14,13.14,0,0,0,6.2,1.449c5.687,0,11.651-3.034,14.16-7.049L58.742,71.8C56.31,75.691,48.068,79.254,42.508,76.294Z" transform="translate(-18.461 -24.139)" fill="#8fba1c"/>
    </g>
  </g>
</svg>
